<svg width="24" height="25" viewBox="0 0 24 25" fill="none" xmlns="http://www.w3.org/2000/svg">
<rect x="2" y="2.19971" width="20" height="20" rx="10" fill="#FF060A"/>
<path d="M17.6245 10.0618C17.0728 9.57137 16.3065 8.82424 15.6858 8.2955L15.6475 8.27252C15.5862 8.22654 15.5172 8.18822 15.4444 8.1614C13.9425 7.8932 6.95402 6.64033 6.81992 6.65566C6.7816 6.65949 6.74329 6.67481 6.71264 6.69397L6.67815 6.72079C6.63601 6.76294 6.60153 6.81274 6.58237 6.87022L6.57471 6.8932V7.01964V7.0388C7.36015 9.13842 10.4674 16.012 11.0805 17.6288C11.1188 17.7399 11.1877 17.9468 11.318 17.9583H11.3487C11.4176 17.9583 11.7165 17.579 11.7165 17.579C11.7165 17.579 17.0536 11.3798 17.5939 10.7208C17.6628 10.6403 17.7241 10.5522 17.7778 10.4603C17.7931 10.3875 17.7854 10.3147 17.7586 10.2457C17.7318 10.1767 17.682 10.1116 17.6245 10.0618ZM13.0805 10.7859L15.3563 8.9775L16.6935 10.1576L13.0805 10.7859ZM12.1954 10.6672L8.27586 7.58669L14.6207 8.7093L12.1954 10.6672ZM12.5479 11.4717L16.5594 10.8511L11.9732 16.1499L12.5479 11.4717ZM7.74329 7.89704L11.8697 11.2495L11.272 16.1537L7.74329 7.89704Z" fill="white"/>
</svg>
